<svg width="289" height="289" viewBox="0 0 289 289" fill="none" xmlns="http://www.w3.org/2000/svg">
<path d="M7.3999 7.06665C16.1499 -1.68335 30.3319 -1.68335 39.0773 7.06665L144.671 112.66L250.264 7.06665C259.014 -1.68335 273.196 -1.68335 281.941 7.06665C290.691 15.8167 290.691 29.9986 281.941 38.744L176.348 144.337L281.941 249.931C290.691 258.681 290.691 272.863 281.941 281.608C273.191 290.358 259.009 290.353 250.264 281.608L144.671 176.015L39.0773 281.608C30.3273 290.353 16.1452 290.353 7.3999 281.608C-1.3501 272.858 -1.3501 258.676 7.3999 249.931L112.993 144.337L7.3999 38.744C-1.3501 29.994 -1.3501 15.812 7.3999 7.06665V7.06665Z" fill="black"/>
</svg>
